<svg width="208" height="449.002" viewBox="0 0 208 449.002" xmlns="http://www.w3.org/2000/svg"><g id="svgGroup" stroke-linecap="round" fill-rule="evenodd" font-size="9pt" stroke="#000" stroke-width="0.25mm" fill="#000" style="stroke:#000;stroke-width:0.25mm;fill:#000"><path d="M 208 449 L 119 449 Q 85 449 70.5 433.75 Q 56 418.5 56 395 L 56 372.5 Q 56 360 58.75 350.5 Q 61.5 341 65.5 333.5 Q 69.5 326 74.5 320.25 Q 79.5 314.5 84 309 Q 92.5 299 95.75 291.75 Q 99 284.5 99 276.5 Q 99 263.5 85.5 256.5 Q 72 249.5 45 249.5 L 0 249.5 L 0 199.5 L 45 199.5 Q 72 199.5 85.5 192.5 Q 99 185.5 99 172.5 Q 99 164.5 95.75 157.25 Q 92.5 150 84 140 Q 79.5 135 74.5 129 Q 69.5 123 65.5 115.5 Q 61.5 108 58.75 98.5 Q 56 89 56 76.5 L 56 54 Q 56 30.5 70.5 15.25 Q 85 0 119 0 L 208 0 L 208 49.5 L 115.5 49.5 L 115.5 73.5 Q 115.5 92.5 121.75 102.5 Q 128 112.5 135.5 122.5 Q 144 133 151.5 145 Q 159 157 159 173 Q 159 194 144.5 206.5 Q 130 219 100 222.5 L 100 226.5 Q 130 230 144.5 242.5 Q 159 255 159 276 Q 159 292 151.5 304 Q 144 316 135.5 326.5 Q 128 336.5 121.75 346.5 Q 115.5 356.5 115.5 375.5 L 115.5 399.5 L 208 399.5 L 208 449 Z" vector-effect="non-scaling-stroke"/></g></svg>